<svg width="19" height="16" viewBox="0 0 19 16" fill="none" xmlns="http://www.w3.org/2000/svg">
<path d="M11.875 12.1667V11.1667H14.7448V12.1667H11.875ZM11.875 6.03333V5.03333H17.4167V6.03333H11.875ZM11.875 9.1V8.1H16.5261V9.1H11.875ZM2.47397 4.75H1.58334V3.75H4.94793V3H7.6198V3.75H10.9844V4.75H10.0938V11.6667C10.0938 11.9333 9.97501 12.1667 9.73751 12.3667C9.50001 12.5667 9.22293 12.6667 8.90626 12.6667H3.66147C3.3448 12.6667 3.06772 12.5667 2.83022 12.3667C2.59272 12.1667 2.47397 11.9333 2.47397 11.6667V4.75ZM3.66147 4.75V11.6667H8.90626V4.75H3.66147ZM3.66147 4.75V11.6667V4.75Z" fill="white"/>
</svg>
