<svg width="45" height="42" viewBox="0 0 45 42" fill="none" xmlns="http://www.w3.org/2000/svg">
<path d="M22.5 36.75V33.6438L32.625 24.1937L35.9531 27.3L25.8281 36.75H22.5ZM5.625 27.5625V24.9375H19.6875V27.5625H5.625ZM37.9687 25.4187L34.6406 22.3125L36 21.0437C36.25 20.8104 36.5781 20.6937 36.9844 20.6937C37.3906 20.6937 37.7187 20.8104 37.9687 21.0437L39.3281 22.3125C39.5781 22.5458 39.7031 22.8521 39.7031 23.2312C39.7031 23.6104 39.5781 23.9167 39.3281 24.15L37.9687 25.4187ZM5.625 20.3438V17.7188H27.6562V20.3438H5.625ZM5.625 13.125V10.5H27.6562V13.125H5.625Z" fill="#FFFEFE"/>
</svg>
