<svg width="50" height="50" viewBox="0 0 50 50" fill="none" xmlns="http://www.w3.org/2000/svg">
<path d="M31.9271 33.9062C31.5451 33.4549 31.3542 32.9424 31.3542 32.3687C31.3542 31.7965 31.5451 31.3194 31.9271 30.9375L35.7812 27.0833H20.8333C20.2431 27.0833 19.7486 26.8833 19.35 26.4833C18.95 26.0847 18.75 25.5903 18.75 25C18.75 24.4097 18.95 23.9146 19.35 23.5146C19.7486 23.116 20.2431 22.9167 20.8333 22.9167H35.7812L31.9271 19.0625C31.5104 18.6458 31.3021 18.1514 31.3021 17.5792C31.3021 17.0056 31.5104 16.5104 31.9271 16.0937C32.309 15.6771 32.7868 15.4688 33.3604 15.4688C33.9326 15.4688 34.4097 15.6597 34.7917 16.0417L42.2917 23.5417C42.5 23.75 42.6479 23.9757 42.7354 24.2188C42.8215 24.4618 42.8646 24.7222 42.8646 25C42.8646 25.2778 42.8215 25.5382 42.7354 25.7812C42.6479 26.0243 42.5 26.25 42.2917 26.4583L34.7917 33.9583C34.3403 34.4097 33.8458 34.609 33.3083 34.5562C32.7694 34.5049 32.309 34.2882 31.9271 33.9062ZM10.4167 43.75C9.27083 43.75 8.28958 43.3424 7.47292 42.5271C6.65764 41.7104 6.25 40.7292 6.25 39.5833V10.4167C6.25 9.27083 6.65764 8.28958 7.47292 7.47292C8.28958 6.65764 9.27083 6.25 10.4167 6.25H22.9167C23.5069 6.25 24.0021 6.44931 24.4021 6.84792C24.8007 7.24792 25 7.74306 25 8.33333C25 8.92361 24.8007 9.41806 24.4021 9.81667C24.0021 10.2167 23.5069 10.4167 22.9167 10.4167H10.4167V39.5833H22.9167C23.5069 39.5833 24.0021 39.7833 24.4021 40.1833C24.8007 40.5819 25 41.0764 25 41.6667C25 42.2569 24.8007 42.7514 24.4021 43.15C24.0021 43.55 23.5069 43.75 22.9167 43.75H10.4167Z" fill="white"/>
</svg>
