<svg width="10" height="11" viewBox="0 0 10 11" fill="none" xmlns="http://www.w3.org/2000/svg">
<path d="M7.69534 9.88702C7.62957 9.88727 7.56539 9.86677 7.51195 9.82842L5.00003 8.00733L2.48812 9.82842C2.43445 9.86735 2.3698 9.8882 2.30351 9.88795C2.23721 9.88771 2.17271 9.86639 2.11933 9.82708C2.06595 9.78777 2.02645 9.7325 2.00655 9.66926C1.98665 9.60602 1.98738 9.5381 2.00863 9.4753L2.98831 6.57354L0.449252 4.83233C0.394254 4.79466 0.352745 4.74038 0.330789 4.67744C0.308834 4.61449 0.307582 4.54618 0.327218 4.48247C0.346853 4.41876 0.386347 4.36301 0.439928 4.32334C0.493509 4.28368 0.55837 4.26219 0.625033 4.26202H3.75746L4.70277 1.35284C4.72313 1.29003 4.76287 1.23528 4.81627 1.19646C4.86968 1.15763 4.93401 1.13672 5.00003 1.13672C5.06606 1.13672 5.13039 1.15763 5.1838 1.19646C5.2372 1.23528 5.27693 1.29003 5.2973 1.35284L6.24261 4.26299H9.37503C9.44178 4.26296 9.50678 4.2843 9.56052 4.32389C9.61427 4.36347 9.65392 4.41923 9.67368 4.48298C9.69344 4.54674 9.69227 4.61514 9.67033 4.67818C9.6484 4.74122 9.60686 4.79558 9.55179 4.83331L7.01175 6.57354L7.99085 9.47452C8.00672 9.52148 8.01118 9.57155 8.00387 9.62058C7.99656 9.66962 7.97769 9.71621 7.94882 9.75651C7.91995 9.79681 7.88191 9.82966 7.83784 9.85235C7.79376 9.87505 7.74492 9.88693 7.69534 9.88702Z" fill="#FFAD30"/>
</svg>
