<svg width="26" height="27" viewBox="0 0 26 27" fill="none" xmlns="http://www.w3.org/2000/svg">
<path d="M8.66667 1.93087V0H17.3333V1.93087H8.66667ZM11.9167 16.3159H14.0833V8.91418H11.9167V16.3159ZM13 27C11.2185 27 9.53935 26.6943 7.9625 26.0828C6.38565 25.4714 5.00741 24.64 3.82778 23.5888C2.64815 22.5375 1.71528 21.3093 1.02917 19.9041C0.343056 18.4988 0 17.0024 0 15.4148C0 13.8272 0.343056 12.3308 1.02917 10.9255C1.71528 9.52026 2.64815 8.29201 3.82778 7.24076C5.00741 6.18951 6.38565 5.35816 7.9625 4.74672C9.53935 4.13528 11.2185 3.82956 13 3.82956C14.613 3.82956 16.1296 4.07092 17.55 4.55364C18.9704 5.03635 20.2343 5.70679 21.3417 6.56496L23.1833 4.92372L24.7 6.27533L22.8583 7.91657C23.725 8.77473 24.4653 9.81526 25.0792 11.0381C25.6931 12.261 26 13.7199 26 15.4148C26 17.0024 25.6569 18.4988 24.9708 19.9041C24.2847 21.3093 23.3519 22.5375 22.1722 23.5888C20.9926 24.64 19.6144 25.4714 18.0375 26.0828C16.4606 26.6943 14.7815 27 13 27ZM13 25.0691C16.0093 25.0691 18.5671 24.1305 20.6736 22.2533C22.7801 20.376 23.8333 18.0965 23.8333 15.4148C23.8333 12.733 22.7801 10.4535 20.6736 8.57628C18.5671 6.69905 16.0093 5.76043 13 5.76043C9.99074 5.76043 7.43287 6.69905 5.32639 8.57628C3.21991 10.4535 2.16667 12.733 2.16667 15.4148C2.16667 18.0965 3.21991 20.376 5.32639 22.2533C7.43287 24.1305 9.99074 25.0691 13 25.0691Z" fill="#938E8E"/>
</svg>
