<svg width="18" height="19" viewBox="0 0 18 19" fill="none" xmlns="http://www.w3.org/2000/svg">
<path d="M9 12.4688C9.8875 12.4688 10.6406 12.1423 11.2594 11.4891C11.8781 10.836 12.1875 10.0411 12.1875 9.10425C12.1875 8.16744 11.8781 7.37248 11.2594 6.71935C10.6406 6.06623 9.8875 5.73966 9 5.73966C8.1125 5.73966 7.35938 6.06623 6.74063 6.71935C6.12188 7.37248 5.8125 8.16744 5.8125 9.10425C5.8125 10.0411 6.12188 10.836 6.74063 11.4891C7.35938 12.1423 8.1125 12.4688 9 12.4688ZM9 11.3209C8.4125 11.3209 7.91563 11.1065 7.50937 10.6777C7.10312 10.2489 6.9 9.72439 6.9 9.10425C6.9 8.48411 7.10312 7.95963 7.50937 7.53081C7.91563 7.10199 8.4125 6.88758 9 6.88758C9.5875 6.88758 10.0844 7.10199 10.4906 7.53081C10.8969 7.95963 11.1 8.48411 11.1 9.10425C11.1 9.72439 10.8969 10.2489 10.4906 10.6777C10.0844 11.1065 9.5875 11.3209 9 11.3209ZM9 15.0417C7.175 15.0417 5.525 14.4942 4.05 13.399C2.575 12.3039 1.475 10.8723 0.75 9.10425C1.475 7.33619 2.575 5.9046 4.05 4.80946C5.525 3.71432 7.175 3.16675 9 3.16675C10.825 3.16675 12.475 3.71432 13.95 4.80946C15.425 5.9046 16.525 7.33619 17.25 9.10425C16.525 10.8723 15.425 12.3039 13.95 13.399C12.475 14.4942 10.825 15.0417 9 15.0417ZM9 13.8542C10.5125 13.8542 11.9031 13.4221 13.1719 12.5579C14.4406 11.6937 15.4062 10.5424 16.0687 9.10425C15.4062 7.66605 14.4406 6.51484 13.1719 5.6506C11.9031 4.78637 10.5125 4.35425 9 4.35425C7.4875 4.35425 6.09688 4.78637 4.82812 5.6506C3.55938 6.51484 2.5875 7.66605 1.9125 9.10425C2.5875 10.5424 3.55938 11.6937 4.82812 12.5579C6.09688 13.4221 7.4875 13.8542 9 13.8542Z" fill="white"/>
</svg>
